<svg xmlns="http://www.w3.org/2000/svg" viewBox="0 0 36 36" role="img" aria-label="Phong Thuy Viet">
  <!-- Yin background -->
  <rect width="36" height="36" rx="8" fill="#111110"/>
  <!-- Gold circle border -->
  <circle cx="18" cy="18" r="16.5" stroke="#C9A84C" stroke-width="1" fill="none"/>
  <!-- Center petal -->
  <path d="M18 6 C13.5 11 10.5 15 10.5 20 C10.5 24.5 13.8 27.5 18 27.5 C22.2 27.5 25.5 24.5 25.5 20 C25.5 15 22.5 11 18 6Z" fill="#C9A84C" opacity="0.9"/>
  <!-- Left petal -->
  <path d="M10 11 C7 14 6.5 19 9 22 C11 24.5 15 26 18 25 C15 22 13 18 10 11Z" fill="#C9A84C" opacity="0.45"/>
  <!-- Right petal -->
  <path d="M26 11 C29 14 29.5 19 27 22 C25 24.5 21 26 18 25 C21 22 23 18 26 11Z" fill="#C9A84C" opacity="0.45"/>
  <!-- Yin center dot -->
  <circle cx="18" cy="21" r="3.5" fill="#111110"/>
  <circle cx="18" cy="21" r="1.5" fill="#C9A84C" opacity="0.5"/>
</svg>
